# xmcd
#
# Track frame offsets: 
#        150
#        19622
#        32690
#        55302
#        66525
#        88375
#        107880
#        128440
#        145262
#        167610
#        189712
#        214510
#        233305
#        249530
#        272330
#        291945
#
# Disc length: 4135 seconds
#
# Revision: 4
# Processed by: cddbd v1.5.2PL0 Copyright (c) Steve Scherf et al.
# Submitted via: ExactAudioCopy v1.3
#
DISCID=e2102510
DTITLE=Various Artist - Blues Revue Sampler, Apr-May 2006
DYEAR=2006
DGENRE=Blues
TTITLE0=Erik Burdon - Soul of a man
TTITLE1=Barbara Blue - Low down dirty dawg
TTITLE2=Watermelon Slim and The Workers - Juke joint woman
TTITLE3=John Long - Blues and boogie woogie
TTITLE4=Rose City Kings - Biscuits n' gravy
TTITLE5=Richard Ray Farrell - Bad intentions
TTITLE6=Phil Berkowitz - I'm gonna move to the outskirts of town
TTITLE7=Spoonful of Blues - Down in Mississippi
TTITLE8=Sista Monica - Cookin' with grease
TTITLE9=Tommy McCoy - Lay my demons down
TTITLE10=Bobby Manriquez - My heart to give
TTITLE11=Erja Lyytinen - Dreamland blues
TTITLE12=Alan Hager - We'll never know
TTITLE13=Rico Blues Combo - I'll go insane
TTITLE14=The Rocky Athas Group - Tearin' me up
TTITLE15=Deb Callahan - Blue pearl Moon
EXTD=ID3G:   0 YEAR: 2006
EXTT0=
EXTT1=
EXTT2=
EXTT3=
EXTT4=
EXTT5=
EXTT6=
EXTT7=
EXTT8=
EXTT9=
EXTT10=
EXTT11=
EXTT12=
EXTT13=
EXTT14=
EXTT15=
PLAYORDER=
